<?xml version="1.0" encoding="utf-8"?>
<!-- Generator: Adobe Illustrator 19.2.0, SVG Export Plug-In . SVG Version: 6.00 Build 0)  -->
<svg version="1.1" id="Lager_1" xmlns="http://www.w3.org/2000/svg" xmlns:xlink="http://www.w3.org/1999/xlink" x="0px" y="0px"
	 viewBox="0 0 25.5 25.5" style="enable-background:new 0 0 25.5 25.5;" xml:space="preserve">
<style type="text/css">
	.st0{fill:#3ee6d9;}
</style>
<g>
	<path class="st0" d="M15.8,14.3v4c0,0.3-0.2,0.5-0.5,0.5l0,0h-0.5v1h2c0.6,0,1-0.4,1-1v-5h0.5c0.3,0,0.5-0.2,0.5-0.5
		s-0.2-0.5-0.5-0.5h-0.5v-5c0-0.6-0.4-1-1-1h-2v1h0.5c0.3,0,0.5,0.2,0.5,0.5l0,0v4c0.6,0,1,0.4,1,1S16.4,14.3,15.8,14.3z M9.8,14.3
		v4c0,0.3,0.2,0.5,0.5,0.5l0,0h0.5v1h-2c-0.6,0-1-0.4-1-1v-5H7.3c-0.3,0-0.5-0.2-0.5-0.5s0.2-0.5,0.5-0.5h0.5v-5c0-0.6,0.4-1,1-1h2
		v1h-0.5C10,7.8,9.8,8,9.8,8.3l0,0v4c-0.6,0-1,0.4-1,1S9.2,14.3,9.8,14.3z"/>
	<path class="st0" d="M24.5,0.9v23.8H1V0.9H24.5z M25.5,0H0v25.5h25.5V0z"/>
</g>
</svg>
