<svg version="1.1" id="Layer_1" xmlns="http://www.w3.org/2000/svg" xmlns:xlink="http://www.w3.org/1999/xlink" x="0px" y="0px" viewBox="0 0 76.381 12.81" enable-background="new 0 0 76.381 12.81" xml:space="preserve">
<g id="XMLID_14_">
  <path id="XMLID_335_" fill="#fff" d="M73.55,1.464c0.755,0,1.367,0.612,1.367,1.367s-0.612,1.367-1.367,1.367
    c-0.755,0-1.367-0.612-1.367-1.367S72.795,1.464,73.55,1.464 M73.55,0c-1.561,0-2.832,1.27-2.832,2.832s1.27,2.832,2.832,2.832
    c1.561,0,2.832-1.27,2.832-2.832S75.111,0,73.55,0L73.55,0z"></path>
  <path id="XMLID_320_" fill="#fff" d="M4.378,5.536C4,5.536,3.684,5.622,3.429,5.794C3.174,5.966,2.966,6.188,2.805,6.46
    C2.644,6.732,2.53,7.032,2.464,7.359c-0.067,0.327-0.1,0.652-0.1,0.974c0,0.311,0.033,0.627,0.1,0.949
    c0.067,0.322,0.175,0.613,0.325,0.874c0.15,0.261,0.352,0.474,0.608,0.641c0.255,0.167,0.566,0.25,0.932,0.25
    c0.566,0,1.001-0.158,1.307-0.474c0.305-0.316,0.497-0.741,0.574-1.274h2.281c-0.156,1.143-0.599,2.014-1.332,2.613
    c-0.732,0.599-1.67,0.899-2.813,0.899c-0.644,0-1.235-0.108-1.773-0.325c-0.538-0.216-0.996-0.519-1.373-0.907
    c-0.377-0.388-0.672-0.851-0.882-1.39C0.105,9.65,0,9.059,0,8.416C0,7.75,0.097,7.131,0.291,6.56
    c0.194-0.571,0.48-1.065,0.857-1.481C1.526,4.662,1.986,4.338,2.53,4.105c0.544-0.233,1.165-0.35,1.864-0.35
    c0.51,0,1.001,0.067,1.473,0.2C6.339,4.088,6.761,4.29,7.133,4.562c0.372,0.272,0.674,0.61,0.907,1.015
    c0.233,0.405,0.366,0.885,0.4,1.44H6.126C5.97,6.03,5.387,5.536,4.378,5.536z"></path>
  <path id="XMLID_322_" fill="#fff" d="M11.585,1.456v11.138H9.222V1.637L11.585,1.456z"></path>
  <path id="XMLID_324_" fill="#fff" d="M12.834,6.427c0.211-0.56,0.51-1.038,0.899-1.432c0.388-0.394,0.854-0.699,1.398-0.916
    c0.544-0.216,1.154-0.324,1.831-0.324c0.677,0,1.29,0.108,1.839,0.324c0.549,0.216,1.018,0.522,1.407,0.916
    c0.388,0.394,0.688,0.871,0.899,1.432c0.211,0.561,0.316,1.185,0.316,1.873c0,0.688-0.106,1.31-0.316,1.864
    c-0.211,0.555-0.511,1.029-0.899,1.423c-0.389,0.394-0.857,0.697-1.407,0.907c-0.549,0.211-1.163,0.316-1.839,0.316
    c-0.677,0-1.287-0.106-1.831-0.316c-0.544-0.211-1.01-0.513-1.398-0.907c-0.389-0.394-0.688-0.868-0.899-1.423
    c-0.211-0.555-0.316-1.176-0.316-1.864C12.517,7.611,12.623,6.987,12.834,6.427z M14.981,9.306c0.067,0.327,0.18,0.622,0.341,0.882
    c0.161,0.261,0.375,0.469,0.641,0.624c0.266,0.155,0.599,0.233,0.999,0.233s0.735-0.078,1.007-0.233
    c0.272-0.155,0.488-0.363,0.649-0.624c0.161-0.261,0.275-0.555,0.341-0.882c0.067-0.327,0.1-0.663,0.1-1.007
    c0-0.344-0.033-0.682-0.1-1.015c-0.067-0.333-0.18-0.627-0.341-0.882c-0.161-0.255-0.377-0.463-0.649-0.624
    c-0.272-0.161-0.608-0.241-1.007-0.241s-0.732,0.081-0.999,0.241c-0.266,0.161-0.48,0.369-0.641,0.624
    c-0.161,0.255-0.275,0.549-0.341,0.882c-0.067,0.333-0.1,0.672-0.1,1.015C14.881,8.643,14.914,8.979,14.981,9.306z"></path>
  <path id="XMLID_327_" fill="#fff" d="M28.114,12.594v-1.198h-0.05c-0.3,0.499-0.688,0.86-1.165,1.082
    c-0.477,0.222-0.965,0.333-1.465,0.333c-0.633,0-1.151-0.083-1.556-0.25c-0.405-0.167-0.724-0.402-0.957-0.707
    c-0.233-0.305-0.397-0.677-0.491-1.115c-0.094-0.438-0.141-0.924-0.141-1.457V3.988h2.364v4.861c0,0.71,0.111,1.24,0.333,1.59
    c0.222,0.35,0.616,0.524,1.182,0.524c0.643,0,1.11-0.191,1.398-0.574c0.288-0.383,0.433-1.013,0.433-1.889V3.988h2.364v8.606
    H28.114z"></path>
  <path id="XMLID_329_" fill="#fff" d="M37.602,11.495c-0.278,0.466-0.641,0.802-1.09,1.007c-0.449,0.205-0.957,0.308-1.523,0.308
    c-0.644,0-1.21-0.125-1.698-0.375c-0.488-0.25-0.891-0.588-1.207-1.015c-0.316-0.427-0.555-0.918-0.716-1.473
    c-0.161-0.555-0.241-1.132-0.241-1.731c0-0.577,0.08-1.135,0.241-1.673c0.161-0.538,0.4-1.013,0.716-1.423
    c0.316-0.41,0.713-0.741,1.19-0.99c0.477-0.25,1.032-0.374,1.665-0.374c0.51,0,0.996,0.108,1.456,0.324
    c0.46,0.216,0.824,0.536,1.09,0.957h0.033v-3.4l2.364-0.181v11.138h-2.247v-1.099H37.602z M37.502,7.242
    c-0.067-0.327-0.181-0.616-0.341-0.866C37,6.127,36.792,5.925,36.537,5.769c-0.255-0.155-0.577-0.233-0.965-0.233
    c-0.389,0-0.716,0.078-0.982,0.233c-0.266,0.155-0.48,0.361-0.641,0.616c-0.161,0.255-0.278,0.547-0.35,0.874
    c-0.072,0.327-0.108,0.669-0.108,1.024c0,0.333,0.039,0.666,0.117,0.999c0.077,0.333,0.202,0.63,0.375,0.891
    c0.172,0.261,0.388,0.472,0.649,0.633c0.261,0.161,0.574,0.241,0.94,0.241c0.388,0,0.713-0.078,0.974-0.233
    c0.261-0.155,0.469-0.363,0.624-0.624c0.155-0.261,0.266-0.558,0.333-0.891c0.067-0.333,0.1-0.677,0.1-1.032
    C37.602,7.911,37.569,7.57,37.502,7.242z"></path>
  <path id="XMLID_332_" fill="#fff" d="M43.245,3.988v1.198h0.05c0.3-0.499,0.688-0.863,1.165-1.09
    c0.477-0.227,0.965-0.341,1.465-0.341c0.633,0,1.151,0.086,1.556,0.258c0.405,0.172,0.724,0.411,0.957,0.716
    c0.233,0.305,0.397,0.677,0.491,1.115c0.094,0.438,0.141,0.924,0.141,1.456v5.293h-2.364V7.733c0-0.71-0.111-1.24-0.333-1.59
    c-0.222-0.35-0.616-0.524-1.182-0.524c-0.644,0-1.11,0.191-1.398,0.574c-0.289,0.383-0.433,1.013-0.433,1.889v4.511h-2.364V3.988
    H43.245z"></path>
  <path id="XMLID_334_" fill="#fff" d="M52.633,3.988v8.606h-2.364V3.988H52.633z"></path>
  <path id="XMLID_337_" fill="#fff" d="M56.248,3.988v1.198h0.05c0.3-0.499,0.688-0.863,1.165-1.09
    c0.477-0.227,0.965-0.341,1.465-0.341c0.633,0,1.151,0.086,1.556,0.258c0.405,0.172,0.724,0.411,0.957,0.716
    c0.233,0.305,0.397,0.677,0.491,1.115c0.094,0.438,0.141,0.924,0.141,1.456v5.293H59.71V7.733c0-0.71-0.111-1.24-0.333-1.59
    c-0.222-0.35-0.616-0.524-1.182-0.524c-0.644,0-1.11,0.191-1.398,0.574c-0.289,0.383-0.433,1.013-0.433,1.889v4.511h-2.364V3.988
    H56.248z"></path>
  <path id="XMLID_339_" fill="#fff" d="M65.693,10.53c0.355,0.344,0.866,0.516,1.531,0.516c0.477,0,0.888-0.119,1.232-0.358
    c0.344-0.239,0.555-0.491,0.633-0.757h2.081c-0.333,1.032-0.843,1.77-1.531,2.214c-0.688,0.444-1.521,0.666-2.497,0.666
    c-0.677,0-1.287-0.108-1.831-0.325c-0.544-0.216-1.005-0.524-1.382-0.924c-0.377-0.399-0.669-0.876-0.874-1.431
    c-0.205-0.555-0.308-1.165-0.308-1.831c0-0.644,0.105-1.243,0.316-1.798c0.211-0.555,0.51-1.035,0.899-1.44
    c0.388-0.405,0.852-0.724,1.39-0.957c0.538-0.233,1.135-0.35,1.789-0.35c0.732,0,1.37,0.141,1.914,0.424
    c0.544,0.283,0.99,0.663,1.34,1.14c0.35,0.477,0.602,1.021,0.757,1.631c0.155,0.61,0.211,1.248,0.166,1.914h-6.209
    C65.144,9.631,65.338,10.186,65.693,10.53z M68.365,6.002c-0.283-0.311-0.713-0.466-1.29-0.466c-0.377,0-0.691,0.064-0.94,0.191
    c-0.25,0.128-0.449,0.286-0.599,0.474c-0.15,0.189-0.255,0.389-0.316,0.599c-0.061,0.211-0.097,0.399-0.108,0.566h3.845
    C68.845,6.768,68.648,6.313,68.365,6.002z"></path>
</g>
</svg>
