<svg id="mesosphere-icons-large-docker" viewBox="0 0 48 48">
  <g id="Whale" transform="translate(0.000000, 14.000000)">
    <path d="M4.15789561,22.5270752 C5.21569215,22.6278403 7.74498355,22.2683803 12.4455231,21.0682322 L11.8777009,20.8134449 C12.4450971,21.910654 13.1479776,22.9262108 13.9556604,23.8598675 C14.7376673,24.7638437 15.5749262,25.5435974 16.4130007,26.1985937 C16.7072576,26.4285699 16.9811565,26.6268578 17.2279372,26.793329 C17.3784551,26.8948641 17.4882218,26.9642126 17.5504818,27.0012161 L18.0613946,26.1415836 C18.0151504,26.1140989 17.9214717,26.0549144 17.787166,25.9643157 C17.5592406,25.8105636 17.3041813,25.6259146 17.028791,25.4106836 C16.239302,24.7936593 15.4489974,24.057635 14.7119451,23.2056248 C13.9537447,22.3291682 13.2954942,21.3780951 12.7659601,20.3541023 L12.5833428,20.000964 L12.1981379,20.099315 C9.56752511,20.7709666 7.56426804,21.1861136 6.10545226,21.3934389 C5.13920782,21.5307604 4.54803129,21.5597123 4.25272581,21.5315817 C4.23133242,21.5295438 4.01443892,22.5060847 4.01443892,22.5060847 C4.04810978,22.5137737 4.09507861,22.5210912 4.15789561,22.5270752 Z" id="Shape" fill-opacity="0.4" ></path>
    <path d="M37.6824147,9.45303186 L37.6824147,9.45303186 L37.6819135,9.45330348 C35.8356939,10.4532814 34.5498878,10.9336339 33.0611266,11.0077754 C32.6057216,11.0303341 26.8304506,11.0346328 16.9982171,11.0268695 C14.7080762,11.0250613 12.2837536,11.0226358 9.7039079,11.019666 C7.22264126,11.0168097 1.22165647,11.009 1.01165163,11.009 L1.01165163,10.009 L1.97377836,10.2816026 C1.54064448,10.916882 1.54064448,10.916882 1.30189958,10.9710307 C1.15412148,11.0092773 1.15412148,11.0092773 1.07314864,11.0185628 C1.0014217,11.0263994 0.930555301,11.0288268 0.847349648,11.0285489 C0.745749528,11.0282097 0.634469777,11.0239317 0.460964681,11.015107 C0.434342858,11.0137464 0.434342858,11.0137464 0.408134648,11.0123894 C0.226705215,11.0029809 0.179372257,11.0007318 0.124594716,10.9993543 C0.10622323,10.9988923 0.096745683,10.9989071 0.107614067,10.9982779 C0.138653256,10.9969239 0.138653256,10.9969239 0.245298679,10.9779106 C0.463753975,10.9931575 0.463753975,10.9931575 1.00803001,10.0940301 C0.996326379,10.2311727 0.997546996,10.3568213 1.01004601,10.5898942 C1.01170008,10.620486 1.01170008,10.620486 1.01343215,10.6520318 C1.03027787,10.9589544 1.03466641,11.1125352 1.02583915,11.3253027 C0.917533872,14.0104157 1.44039973,17.0901383 2.43136843,18.9333568 C3.7337744,21.355118 5.66623499,23.1733866 8.22004901,24.4077616 C10.4013652,25.4627482 12.8170407,25.9706486 15.549694,26.0060851 C17.336666,26.0293934 19.1129843,25.906897 20.8781107,25.6383962 C23.4152024,25.2520573 25.769267,24.5684953 27.9611328,23.5623317 C31.1106623,22.1151722 33.7581756,20.0808653 35.9062494,17.4415323 C36.6740271,16.4987501 37.4208781,15.1630718 38.2190034,13.3913489 C38.5983799,12.5491877 38.6793073,12.3548393 39.5121047,10.3213672 C39.7504804,9.73867103 40.2212633,9.42125653 40.8670495,9.4416267 C42.0275834,9.48273293 43.0711863,9.33628939 44.0347752,8.98008916 C45.4793041,8.44584539 46.4725619,7.45878125 47.0872989,5.96946096 L47.4501399,7.17846876 C45.8395643,6.08554881 44.0392861,5.84953738 41.9242381,6.38537469 L40.8616847,6.65456752 L40.6908688,5.57183655 C40.3961747,3.70389388 39.3535333,2.28383482 37.3892315,0.797423433 L38.6720915,0.73373119 C37.9467049,1.40544395 37.514662,2.24343053 37.3443389,3.28162933 C37.0466916,5.08748292 37.3077454,6.5810701 38.2138257,7.88976387 L38.8127298,8.75478873 L37.9184183,9.30900991 C37.9207294,9.30757767 37.7918773,9.39013945 37.7405362,9.42022249 C37.7129709,9.43620508 37.7129709,9.43620508 37.6824147,9.45303186 L37.6824147,9.45303186 Z M41.4543436,4.44125437 C41.4472527,4.4430376 41.4401598,4.44482791 41.4330652,4.44662531 L41.4617472,4.46554413 C41.5534338,4.76835805 41.6263841,5.08469818 41.6786516,5.416 C41.9912271,5.33681049 42.3017033,5.27206299 42.6098934,5.22286856 L42.6664345,5.26016345 C42.6640624,5.24512756 42.6616545,5.23011519 42.6592109,5.21512623 C44.5436233,4.92426723 46.3420523,5.21802716 48.0116516,6.351 C47.3066516,8.059 46.1256516,9.273 44.3816516,9.918 C43.2346516,10.342 42.0456516,10.484 40.8316516,10.441 C40.6096516,10.434 40.5186516,10.502 40.4376516,10.7 C39.4936516,13.005 38.2566516,16.139 36.6816516,18.073 C34.4166516,20.856 31.6366516,22.974 28.3786516,24.471 C26.0346516,25.547 23.5766516,26.239 21.0286516,26.627 C19.2076516,26.904 17.3766516,27.03 15.5366516,27.006 C12.8376516,26.971 10.2306516,26.491 7.78465163,25.308 C5.08265163,24.002 2.97365163,22.053 1.55065163,19.407 C0.357651632,17.188 -0.0743483681,13.789 0.0266516319,11.285 C0.0456516319,10.827 -0.0273483681,10.466 0.0116516319,10.009 C0.0146516319,9.968 0.994651632,10.069 1.01165163,10.009 C2.38965163,10.009 32.0426516,10.057 33.0116516,10.009 C34.2563307,9.94701399 35.3978662,9.50045994 36.5090844,8.93975404 C36.5289743,8.96931739 36.5491052,8.99881138 36.5694775,9.02823613 L37.3916516,8.459 L37.0283666,7.87279009 C36.2162389,6.39619602 36.0816109,4.79376486 36.3576516,3.119 C36.5566516,1.906 37.0736516,0.851 37.9926516,0 C39.5605868,1.18647588 40.8738685,2.54936387 41.4543436,4.44125437 L41.4543436,4.44125437 Z" id="Body" ></path>
    <path d="M13.5,18 L13.5,18 C12.6715729,18 12,17.3284271 12,16.5 C12,15.6715729 12.6715729,15 13.5,15 C14.3284271,15 15,15.6715729 15,16.5 C15,17.3284271 14.3284271,18 13.5,18 L13.5,18 Z M13.5,17 C13.7761424,17 14,16.7761424 14,16.5 C14,16.2238576 13.7761424,16 13.5,16 C13.2238576,16 13,16.2238576 13,16.5 C13,16.7761424 13.2238576,17 13.5,17 L13.5,17 Z" id="Eye" ></path>
  </g>
  <g id="Boxes" transform="translate(2.000000, 6.000000)">
    <path d="M1,13 L30,13 L30,18 L1,18 L1,13 Z M7,7 L24,7 L24,12 L7,12 L7,7 Z M19,1 L24,1 L24,6 L19,6 L19,1 Z" id="Fill" fill-opacity="0.2" ></path>
    <path d="M0,13 L0,13 L1,12 L1,19 L0,18 L7,18 L6,19 L6,12 L7,13 L0,13 Z M0,12 L7,12 L7,19 L0,19 L0,12 Z M6,13 L7,12 L7,19 L6,18 L13,18 L12,19 L12,12 L13,13 L6,13 Z M6,12 L13,12 L13,19 L6,19 L6,12 Z M12,13 L13,12 L13,19 L12,18 L19,18 L18,19 L18,12 L19,13 L12,13 Z M12,12 L19,12 L19,19 L12,19 L12,12 Z M18,13 L19,12 L19,19 L18,18 L25,18 L24,19 L24,12 L25,13 L18,13 Z M18,12 L25,12 L25,19 L18,19 L18,12 Z M24,13 L25,12 L25,19 L24,18 L31,18 L30,19 L30,12 L31,13 L24,13 Z M24,12 L31,12 L31,19 L24,19 L24,12 Z M6,7 L7,6 L7,13 L6,12 L13,12 L12,13 L12,6 L13,7 L6,7 Z M6,6 L13,6 L13,13 L6,13 L6,6 Z M12,7 L13,6 L13,13 L12,12 L19,12 L18,13 L18,6 L19,7 L12,7 Z M12,6 L19,6 L19,13 L12,13 L12,6 Z M18,7 L19,6 L19,13 L18,12 L25,12 L24,13 L24,6 L25,7 L18,7 Z M18,6 L25,6 L25,13 L18,13 L18,6 Z M18,1 L19,0 L19,7 L18,6 L25,6 L24,7 L24,0 L25,1 L18,1 Z M18,0 L25,0 L25,7 L18,7 L18,0 L18,0 Z" ></path>
  </g>
</svg>
