<?xml version="1.0" encoding="utf-8"?>
<!-- Generator: Adobe Illustrator 19.2.0, SVG Export Plug-In . SVG Version: 6.00 Build 0)  -->
<svg version="1.1" id="Lager_1" xmlns="http://www.w3.org/2000/svg" xmlns:xlink="http://www.w3.org/1999/xlink" x="0px" y="0px"
	 viewBox="0 0 280.5 384.7" style="enable-background:new 0 0 280.5 384.7;" xml:space="preserve">
<style type="text/css">
	.st0{fill:#fff;}
	.st1{fill:#fff;fill-opacity:0.4;}
	.st2{fill:#fff;fill-opacity:0.2;}
</style>
<path fill="#3ee6d9" d="M280.4,136.2L144.2,0H0v384.7h280.5L280.4,136.2C280.5,136.2,280.4,136.2,280.4,136.2z M144.2,22.7l105.6,105.6
	H144.2V22.7z M16,368.6V16h112.2v128.2h136.2v224.4L16,368.6L16,368.6z"/>
<g style="fill: #f823aa;">
	<g id="Whale" transform="translate(0.000000, 14.000000)">
		<path id="Shape" class="st1" d="M70.4,290.1c3.7,0.4,12.6-0.9,29.2-5.1l-2-0.9c2,3.9,4.5,7.4,7.3,10.7c2.8,3.2,5.7,5.9,8.6,8.2
			c1,0.8,2,1.5,2.9,2.1c0.5,0.4,0.9,0.6,1.1,0.7l1.8-3c-0.2-0.1-0.5-0.3-1-0.6c-0.8-0.5-1.7-1.2-2.7-1.9c-2.8-2.2-5.6-4.8-8.2-7.8
			c-2.7-3.1-5-6.4-6.8-10l-0.6-1.2l-1.4,0.3c-9.3,2.4-16.3,3.8-21.4,4.6c-3.4,0.5-5.5,0.6-6.5,0.5c-0.1,0-0.8,3.4-0.8,3.4
			C70,290,70.2,290.1,70.4,290.1z"/>
		<path id="Body" class="st0" d="M188.4,244.1L188.4,244.1L188.4,244.1c-6.5,3.5-11,5.2-16.3,5.5c-1.6,0.1-21.9,0.1-56.5,0.1
			c-8.1,0-16.6,0-25.7,0c-8.7,0-29.8,0-30.6,0V246l3.4,1c-1.5,2.2-1.5,2.2-2.4,2.4c-0.5,0.1-0.5,0.1-0.8,0.2c-0.3,0-0.5,0-0.8,0
			c-0.4,0-0.7,0-1.4,0c-0.1,0-0.1,0-0.2,0c-0.6,0-0.8,0-1,0c-0.1,0-0.1,0-0.1,0c0.1,0,0.1,0,0.5-0.1c0.8,0.1,0.8,0.1,2.7-3.1
			c0,0.5,0,0.9,0,1.7c0,0.1,0,0.1,0,0.2c0.1,1.1,0.1,1.6,0,2.4c-0.4,9.4,1.5,20.3,4.9,26.8c4.6,8.5,11.4,14.9,20.4,19.3
			c7.7,3.7,16.2,5.5,25.8,5.6c6.3,0.1,12.5-0.3,18.7-1.3c8.9-1.4,17.2-3.8,24.9-7.3c11.1-5.1,20.4-12.2,28-21.5
			c2.7-3.3,5.3-8,8.1-14.3c1.3-3,1.6-3.6,4.5-10.8c0.8-2.1,2.5-3.2,4.8-3.1c4.1,0.1,7.8-0.4,11.1-1.6c5.1-1.9,8.6-5.4,10.7-10.6
			l1.3,4.3c-5.7-3.8-12-4.7-19.4-2.8l-3.7,0.9l-0.6-3.8c-1-6.6-4.7-11.6-11.6-16.8l4.5-0.2c-2.6,2.4-4.1,5.3-4.7,9
			c-1,6.4-0.1,11.6,3.1,16.2l2.1,3l-3.1,1.9c0,0-0.4,0.3-0.6,0.4C188.5,244,188.5,244,188.4,244.1L188.4,244.1z M201.6,226.5
			C201.6,226.5,201.6,226.5,201.6,226.5L201.6,226.5c0.3,1.2,0.6,2.3,0.8,3.4c1.1-0.3,2.2-0.5,3.3-0.7l0.2,0.1c0-0.1,0-0.1,0-0.2
			c6.6-1,13,0,18.8,4c-2.5,6-6.6,10.3-12.8,12.6c-4,1.5-8.2,2-12.5,1.8c-0.8,0-1.1,0.2-1.4,0.9c-3.3,8.1-7.7,19.1-13.2,25.9
			c-8,9.8-17.8,17.2-29.2,22.5c-8.2,3.8-16.9,6.2-25.9,7.6c-6.4,1-12.8,1.4-19.3,1.3c-9.5-0.1-18.7-1.8-27.3-6
			c-9.5-4.6-16.9-11.5-21.9-20.8c-4.2-7.8-5.7-19.8-5.4-28.6c0.1-1.6-0.2-2.9-0.1-4.5c0-0.1,3.5,0.2,3.5,0c4.8,0,109.2,0.2,112.6,0
			c4.4-0.2,8.4-1.8,12.3-3.8c0.1,0.1,0.1,0.2,0.2,0.3l2.9-2l-1.3-2.1c-2.9-5.2-3.3-10.8-2.4-16.7c0.7-4.3,2.5-8,5.8-11
			C195,215,199.6,219.8,201.6,226.5L201.6,226.5z"/>
		<path id="Eye" class="st0" d="M103.3,274.2L103.3,274.2c-2.9,0-5.3-2.4-5.3-5.3c0-2.9,2.4-5.3,5.3-5.3c2.9,0,5.3,2.4,5.3,5.3
			C108.6,271.8,106.2,274.2,103.3,274.2L103.3,274.2z M103.3,270.6c1,0,1.8-0.8,1.8-1.8s-0.8-1.8-1.8-1.8c-1,0-1.8,0.8-1.8,1.8
			S102.3,270.6,103.3,270.6L103.3,270.6z"/>
	</g>
	<g id="Boxes" transform="translate(2.000000, 6.000000)">
		<path id="Fill" class="st2" d="M64.3,236.4h102V254h-102V236.4z M85.4,215.3h59.8v17.6H85.4V215.3z M127.7,194.2h17.6v17.6h-17.6
			V194.2z"/>
		<path class="st0" d="M60.8,236.4L60.8,236.4l3.5-3.5v24.6l-3.5-3.5h24.6l-3.5,3.5v-24.6l3.5,3.5H60.8z M60.8,232.9h24.6v24.6H60.8
			V232.9z M81.9,236.4l3.5-3.5v24.6l-3.5-3.5h24.6l-3.5,3.5v-24.6l3.5,3.5H81.9z M81.9,232.9h24.6v24.6H81.9V232.9z M103,236.4
			l3.5-3.5v24.6L103,254h24.6l-3.5,3.5v-24.6l3.5,3.5H103z M103,232.9h24.6v24.6H103V232.9z M124.1,236.4l3.5-3.5v24.6l-3.5-3.5
			h24.6l-3.5,3.5v-24.6l3.5,3.5H124.1z M124.1,232.9h24.6v24.6h-24.6V232.9z M145.3,236.4l3.5-3.5v24.6l-3.5-3.5h24.6l-3.5,3.5
			v-24.6l3.5,3.5H145.3z M145.3,232.9h24.6v24.6h-24.6V232.9z M81.9,215.3l3.5-3.5v24.6l-3.5-3.5h24.6l-3.5,3.5v-24.6l3.5,3.5H81.9z
			 M81.9,211.8h24.6v24.6H81.9V211.8z M103,215.3l3.5-3.5v24.6l-3.5-3.5h24.6l-3.5,3.5v-24.6l3.5,3.5H103z M103,211.8h24.6v24.6H103
			V211.8z M124.1,215.3l3.5-3.5v24.6l-3.5-3.5h24.6l-3.5,3.5v-24.6l3.5,3.5H124.1z M124.1,211.8h24.6v24.6h-24.6V211.8z
			 M124.1,194.2l3.5-3.5v24.6l-3.5-3.5h24.6l-3.5,3.5v-24.6l3.5,3.5H124.1z M124.1,190.7h24.6v24.6h-24.6V190.7L124.1,190.7z"/>
	</g>
</g>
</svg>
