<?xml version="1.0" encoding="utf-8"?>
<!-- Generator: Adobe Illustrator 19.2.0, SVG Export Plug-In . SVG Version: 6.00 Build 0)  -->
<svg version="1.1" id="Lager_1" xmlns="http://www.w3.org/2000/svg" xmlns:xlink="http://www.w3.org/1999/xlink" x="0px" y="0px"
	 viewBox="0 0 215.7 68.8" style="enable-background:new 0 0 215.7 68.8;" xml:space="preserve">
<style type="text/css">
	.st0{fill:#f823aa;fill-opacity:0.2;}
	.st1{fill:#f823aa;}
	.st2{fill:#f823aa;fill-opacity:0.4;}
</style>
<g id="Machine_3_">
	<g id="Background_3_">
		<path id="Fill_16_" class="st0" d="M4.6,0h206.5c2.5,0,4.6,2.1,4.6,4.6v59.6c0,2.5-2.1,4.6-4.6,4.6H4.6c-2.5,0-4.6-2.1-4.6-4.6
			V4.6C0,2.1,2.1,0,4.6,0z"/>
		<path id="Outline_8_" class="st1" d="M4.6,4.6L4.6,4.6v59.6c0,0,0,0,0,0h206.4c0,0,0,0,0,0V4.6c0,0,0,0,0,0L4.6,4.6
			C4.6,4.6,4.6,4.6,4.6,4.6L4.6,4.6z M0,4.6C0,2.1,2.1,0,4.6,0h206.4c2.5,0,4.6,2.1,4.6,4.6v59.6c0,2.6-2.1,4.6-4.6,4.6H4.6
			c-2.5,0-4.6-2.1-4.6-4.6V4.6L0,4.6z"/>
	</g>
	<path id="Dotted-Line_1_" class="st2" d="M100.9,9.2h4.6v9.2h-4.6V9.2L100.9,9.2z M100.9,22.9h4.6v9.2h-4.6V22.9L100.9,22.9z
		 M100.9,36.7h4.6v9.2h-4.6V36.7L100.9,36.7z M100.9,50.5h4.6v9.2h-4.6V50.5L100.9,50.5z"/>
	<g id="LEDs_3_" transform="translate(3.000000, 3.000000)">
		<g id="LED_7_" transform="translate(5.000000, 0.000000)">
			<circle id="Fill_14_" class="st0" cx="35.6" cy="17.6" r="6.9"/>
			<path id="Outline_6_" class="st1" d="M35.6,19.9c1.3,0,2.3-1,2.3-2.3c0-1.3-1-2.3-2.3-2.3c-1.3,0-2.3,1-2.3,2.3
				C33.3,18.9,34.3,19.9,35.6,19.9L35.6,19.9z M35.6,24.5L35.6,24.5c-3.8,0-6.9-3.1-6.9-6.9s3.1-6.9,6.9-6.9c3.8,0,6.9,3.1,6.9,6.9
				S39.4,24.5,35.6,24.5L35.6,24.5z"/>
		</g>
		<g id="LED_6_">
			<circle id="Fill_6_" class="st0" cx="17.6" cy="17.6" r="6.9"/>
			<path id="Outline_7_" class="st1" d="M17.6,19.9c1.3,0,2.3-1,2.3-2.3c0-1.3-1-2.3-2.3-2.3c-1.3,0-2.3,1-2.3,2.3
				C15.4,18.9,16.4,19.9,17.6,19.9L17.6,19.9z M17.6,24.5L17.6,24.5c-3.8,0-6.9-3.1-6.9-6.9s3.1-6.9,6.9-6.9s6.9,3.1,6.9,6.9
				S21.4,24.5,17.6,24.5L17.6,24.5z"/>
		</g>
	</g>
	<path id="Dots_3_" class="st2" d="M16.1,45.9c1.3,0,2.3-1,2.3-2.3c0-1.3-1-2.3-2.3-2.3c-1.3,0-2.3,1-2.3,2.3
		C13.8,44.9,14.8,45.9,16.1,45.9z M25.2,45.9c1.3,0,2.3-1,2.3-2.3c0-1.3-1-2.3-2.3-2.3s-2.3,1-2.3,2.3C22.9,44.9,24,45.9,25.2,45.9z
		 M34.4,45.9c1.3,0,2.3-1,2.3-2.3c0-1.3-1-2.3-2.3-2.3c-1.3,0-2.3,1-2.3,2.3C32.1,44.9,33.1,45.9,34.4,45.9z M43.6,45.9
		c1.3,0,2.3-1,2.3-2.3c0-1.3-1-2.3-2.3-2.3c-1.3,0-2.3,1-2.3,2.3C41.3,44.9,42.3,45.9,43.6,45.9z M52.8,45.9c1.3,0,2.3-1,2.3-2.3
		c0-1.3-1-2.3-2.3-2.3c-1.3,0-2.3,1-2.3,2.3C50.5,44.9,51.5,45.9,52.8,45.9z M61.9,45.9c1.3,0,2.3-1,2.3-2.3c0-1.3-1-2.3-2.3-2.3
		c-1.3,0-2.3,1-2.3,2.3C59.6,44.9,60.7,45.9,61.9,45.9z M71.1,45.9c1.3,0,2.3-1,2.3-2.3c0-1.3-1-2.3-2.3-2.3c-1.3,0-2.3,1-2.3,2.3
		C68.8,44.9,69.9,45.9,71.1,45.9z M80.3,45.9c1.3,0,2.3-1,2.3-2.3c0-1.3-1-2.3-2.3-2.3c-1.3,0-2.3,1-2.3,2.3
		C78,44.9,79,45.9,80.3,45.9z M89.5,45.9c1.3,0,2.3-1,2.3-2.3c0-1.3-1-2.3-2.3-2.3c-1.3,0-2.3,1-2.3,2.3
		C87.2,44.9,88.2,45.9,89.5,45.9z M117,45.9c1.3,0,2.3-1,2.3-2.3c0-1.3-1-2.3-2.3-2.3s-2.3,1-2.3,2.3
		C114.7,44.9,115.7,45.9,117,45.9z M126.2,45.9c1.3,0,2.3-1,2.3-2.3c0-1.3-1-2.3-2.3-2.3s-2.3,1-2.3,2.3
		C123.9,44.9,124.9,45.9,126.2,45.9z M135.4,45.9c1.3,0,2.3-1,2.3-2.3c0-1.3-1-2.3-2.3-2.3s-2.3,1-2.3,2.3
		C133.1,44.9,134.1,45.9,135.4,45.9z M144.5,45.9c1.3,0,2.3-1,2.3-2.3c0-1.3-1-2.3-2.3-2.3s-2.3,1-2.3,2.3
		C142.2,44.9,143.3,45.9,144.5,45.9z M153.7,45.9c1.3,0,2.3-1,2.3-2.3c0-1.3-1-2.3-2.3-2.3s-2.3,1-2.3,2.3
		C151.4,44.9,152.4,45.9,153.7,45.9z M162.9,45.9c1.3,0,2.3-1,2.3-2.3c0-1.3-1-2.3-2.3-2.3s-2.3,1-2.3,2.3
		C160.6,44.9,161.6,45.9,162.9,45.9z M172.1,45.9c1.3,0,2.3-1,2.3-2.3c0-1.3-1-2.3-2.3-2.3s-2.3,1-2.3,2.3
		C169.8,44.9,170.8,45.9,172.1,45.9z M181.2,45.9c1.3,0,2.3-1,2.3-2.3c0-1.3-1-2.3-2.3-2.3s-2.3,1-2.3,2.3
		C178.9,44.9,180,45.9,181.2,45.9z M190.4,45.9c1.3,0,2.3-1,2.3-2.3c0-1.3-1-2.3-2.3-2.3s-2.3,1-2.3,2.3
		C188.1,44.9,189.2,45.9,190.4,45.9z M199.6,45.9c1.3,0,2.3-1,2.3-2.3c0-1.3-1-2.3-2.3-2.3s-2.3,1-2.3,2.3
		C197.3,44.9,198.3,45.9,199.6,45.9z M16.1,55.1c1.3,0,2.3-1,2.3-2.3c0-1.3-1-2.3-2.3-2.3c-1.3,0-2.3,1-2.3,2.3
		C13.8,54,14.8,55.1,16.1,55.1z M25.2,55.1c1.3,0,2.3-1,2.3-2.3c0-1.3-1-2.3-2.3-2.3s-2.3,1-2.3,2.3C22.9,54,24,55.1,25.2,55.1z
		 M34.4,55.1c1.3,0,2.3-1,2.3-2.3c0-1.3-1-2.3-2.3-2.3c-1.3,0-2.3,1-2.3,2.3C32.1,54,33.1,55.1,34.4,55.1z M43.6,55.1
		c1.3,0,2.3-1,2.3-2.3c0-1.3-1-2.3-2.3-2.3c-1.3,0-2.3,1-2.3,2.3C41.3,54,42.3,55.1,43.6,55.1z M52.8,55.1c1.3,0,2.3-1,2.3-2.3
		c0-1.3-1-2.3-2.3-2.3c-1.3,0-2.3,1-2.3,2.3C50.5,54,51.5,55.1,52.8,55.1z M61.9,55.1c1.3,0,2.3-1,2.3-2.3c0-1.3-1-2.3-2.3-2.3
		c-1.3,0-2.3,1-2.3,2.3C59.6,54,60.7,55.1,61.9,55.1z M71.1,55.1c1.3,0,2.3-1,2.3-2.3c0-1.3-1-2.3-2.3-2.3c-1.3,0-2.3,1-2.3,2.3
		C68.8,54,69.9,55.1,71.1,55.1z M80.3,55.1c1.3,0,2.3-1,2.3-2.3c0-1.3-1-2.3-2.3-2.3c-1.3,0-2.3,1-2.3,2.3C78,54,79,55.1,80.3,55.1z
		 M89.5,55.1c1.3,0,2.3-1,2.3-2.3c0-1.3-1-2.3-2.3-2.3c-1.3,0-2.3,1-2.3,2.3C87.2,54,88.2,55.1,89.5,55.1z M117,55.1
		c1.3,0,2.3-1,2.3-2.3c0-1.3-1-2.3-2.3-2.3s-2.3,1-2.3,2.3C114.7,54,115.7,55.1,117,55.1z M126.2,55.1c1.3,0,2.3-1,2.3-2.3
		c0-1.3-1-2.3-2.3-2.3s-2.3,1-2.3,2.3C123.9,54,124.9,55.1,126.2,55.1z M135.4,55.1c1.3,0,2.3-1,2.3-2.3c0-1.3-1-2.3-2.3-2.3
		s-2.3,1-2.3,2.3C133.1,54,134.1,55.1,135.4,55.1z M144.5,55.1c1.3,0,2.3-1,2.3-2.3c0-1.3-1-2.3-2.3-2.3s-2.3,1-2.3,2.3
		C142.2,54,143.3,55.1,144.5,55.1z M153.7,55.1c1.3,0,2.3-1,2.3-2.3c0-1.3-1-2.3-2.3-2.3s-2.3,1-2.3,2.3
		C151.4,54,152.4,55.1,153.7,55.1z M162.9,55.1c1.3,0,2.3-1,2.3-2.3c0-1.3-1-2.3-2.3-2.3s-2.3,1-2.3,2.3
		C160.6,54,161.6,55.1,162.9,55.1z M172.1,55.1c1.3,0,2.3-1,2.3-2.3c0-1.3-1-2.3-2.3-2.3s-2.3,1-2.3,2.3
		C169.8,54,170.8,55.1,172.1,55.1z M181.2,55.1c1.3,0,2.3-1,2.3-2.3c0-1.3-1-2.3-2.3-2.3s-2.3,1-2.3,2.3
		C178.9,54,180,55.1,181.2,55.1z M190.4,55.1c1.3,0,2.3-1,2.3-2.3c0-1.3-1-2.3-2.3-2.3s-2.3,1-2.3,2.3
		C188.1,54,189.2,55.1,190.4,55.1z M199.6,55.1c1.3,0,2.3-1,2.3-2.3c0-1.3-1-2.3-2.3-2.3s-2.3,1-2.3,2.3
		C197.3,54,198.3,55.1,199.6,55.1z"/>
</g>
</svg>
