<svg id="Layer_1" data-name="Layer 1" xmlns="http://www.w3.org/2000/svg" viewBox="0 0 399.01 87.12"><defs><style>.cls-1{fill:#001a37;}</style></defs><title>gametek_sv</title><path class="cls-1" d="M28.42,0h5V24.09H29.26V5.39l-7.74,10.1a2.15,2.15,0,0,1-3.42,0L10.36,5.39v18.7H6.11V0h5l8.65,11.41ZM62.48,7.23A7.2,7.2,0,0,0,56.12.07h-.07a.52.52,0,0,1-.18,0l0,0h-.62L54.9,0H40.58V24.06h4.28V3.59h10a5.39,5.39,0,0,1,.73.06,3.65,3.65,0,0,1,2.88,3.58,3.69,3.69,0,0,1-2.91,3.62,3.21,3.21,0,0,1-.81.1l-2.53,0a2.63,2.63,0,0,0-2.61,2.65,2.66,2.66,0,0,0,.51,1.58L56.63,24l0,.05H62l-7.58-9.6,1.39,0a7.31,7.31,0,0,0,6.63-7.24M91,19.9l-.44-.55L84.24,11l0-.06H78.8l7.27,9.56H76.62a8.17,8.17,0,0,1-2.56-.41,4.84,4.84,0,0,1-2.2-1.49A7,7,0,0,1,70.43,16a13.07,13.07,0,0,1-.51-4,13,13,0,0,1,.51-3.92A6.41,6.41,0,0,1,71.9,5.45,5.28,5.28,0,0,1,74.1,4a7.89,7.89,0,0,1,2.56-.45h11V0H76a12.82,12.82,0,0,0-4,.63,8.75,8.75,0,0,0-3.21,2,9.48,9.48,0,0,0-2.19,3.67A17,17,0,0,0,65.71,12a16.58,16.58,0,0,0,.84,5.71,9.63,9.63,0,0,0,2.22,3.67,8.63,8.63,0,0,0,3.22,2,12.75,12.75,0,0,0,4,.63H89l.27,0a2.49,2.49,0,0,0,2.29-2.54A2.54,2.54,0,0,0,91,19.9"/><path class="cls-1" d="M399,30.45H385.9L367,55.44l-.19.27h0a5.61,5.61,0,0,0-.93,3.06,5.5,5.5,0,0,0,1.08,3.27l0,0,19,25.05H399L377,58.78Z"/><rect class="cls-1" x="351.8" y="30.45" width="10.02" height="56.66"/><path class="cls-1" d="M313.59,77.71a12.73,12.73,0,0,1-5.19-3.43A15.12,15.12,0,0,1,305,68a24.27,24.27,0,0,1-1-5h27.36v0a4.17,4.17,0,0,0,0-8.3v0H304a25.48,25.48,0,0,1,1-5.13,16.6,16.6,0,0,1,3.37-6.26,11.2,11.2,0,0,1,5.16-3.5,19,19,0,0,1,6-1h22V30.51H318.14A29.52,29.52,0,0,0,308.62,32a20,20,0,0,0-7.56,4.74,22.79,22.79,0,0,0-5.23,8.63,39.08,39.08,0,0,0-2,13.44,40.17,40.17,0,0,0,2,13.52A22.47,22.47,0,0,0,301,81a20.39,20.39,0,0,0,7.57,4.66,29.65,29.65,0,0,0,9.51,1.49h24V78.76H319.61A18.39,18.39,0,0,1,313.59,77.71Z"/><path class="cls-1" d="M291.11,30.63v-.12H248.64v8.35H266.3A16.85,16.85,0,0,0,264,46.53l0,0V87.12h9.49V47.52a8.58,8.58,0,0,1,6.76-8.42,12,12,0,0,1,1.74-.15h9.2v-.22a4.15,4.15,0,0,0,0-8.1Z"/><path class="cls-1" d="M213.9,77.71a12.83,12.83,0,0,1-5.19-3.43A15.23,15.23,0,0,1,205.28,68a24.31,24.31,0,0,1-1-5h27.35v0a4.17,4.17,0,0,0,0-8.3v0H204.29a24.85,24.85,0,0,1,1-5.13,16.6,16.6,0,0,1,3.37-6.26,11.22,11.22,0,0,1,5.17-3.5,19,19,0,0,1,6-1h22.63V30.51h-24A29.42,29.42,0,0,0,208.94,32a20,20,0,0,0-7.57,4.74,22.79,22.79,0,0,0-5.23,8.63,39.09,39.09,0,0,0-2,13.44,39.92,39.92,0,0,0,2,13.52A22.57,22.57,0,0,0,201.29,81a20.47,20.47,0,0,0,7.57,4.66,29.69,29.69,0,0,0,9.51,1.49H243V78.76h-23A18.45,18.45,0,0,1,213.9,77.71Z"/><path class="cls-1" d="M153.86,57.27,133.5,30.42H121.71v56.7h10v-44l18.22,23.75a5,5,0,0,0,8.05,0l18.21-23.75v44H186V30.42H174.22Z"/><path class="cls-1" d="M94.54,30.45H83L61.55,78.64l-.09.29h0a6,6,0,0,0-.41,2.13,5.86,5.86,0,0,0,5.36,6l.7.09H95.32l-3.15-8.28H72.46L88.74,40.36l19.87,46.76h11.18L94.63,30.65Z"/><path class="cls-1" d="M55.53,76,40.62,56.35H27.92L45,78.84H28.59c-2.11,0-7-.33-8.93-1a11.28,11.28,0,0,1-5.17-3.5,16.53,16.53,0,0,1-3.37-6.26,30.82,30.82,0,0,1-1.21-9.3,30.18,30.18,0,0,1,1.21-9.22,15.24,15.24,0,0,1,3.44-6.25,12.83,12.83,0,0,1,5.19-3.43,18.61,18.61,0,0,1,6-1H51.7V30.51H24.22A29.44,29.44,0,0,0,14.7,32a20.42,20.42,0,0,0-7.57,4.66A22.56,22.56,0,0,0,2,45.28,40.27,40.27,0,0,0,0,58.81,39.3,39.3,0,0,0,2,72.25a22.79,22.79,0,0,0,5.23,8.63,20,20,0,0,0,7.58,4.75,29.61,29.61,0,0,0,9.51,1.49H51.87L52.5,87a5.87,5.87,0,0,0,5.39-6,6,6,0,0,0-1.31-3.73Z"/></svg>
