<?xml version="1.0" encoding="utf-8"?>
<!-- Generator: Adobe Illustrator 19.2.0, SVG Export Plug-In . SVG Version: 6.00 Build 0)  -->
<svg version="1.1" id="Lager_1" xmlns="http://www.w3.org/2000/svg" xmlns:xlink="http://www.w3.org/1999/xlink" x="0px" y="0px"
	 viewBox="0 0 290 92.6" style="enable-background:new 0 0 290 92.6;" xml:space="preserve">
<style type="text/css">
	.st0{fill:#fff;}
	.st1{fill:#fff;fill-opacity:0.2;}
	.st2{fill:#fff;fill-opacity:0.4;}
</style>
<g id="Machine" transform="translate(0.000000, 32.000000)">
	<path id="Background" class="st0" d="M6.2-25.8L6.2-25.8v80.1c0,0,0,0,0,0h277.6c0,0,0,0,0,0v-80.1c0,0,0,0,0,0L6.2-25.8
		C6.2-25.8,6.2-25.8,6.2-25.8L6.2-25.8z M0-25.8C0-29.2,2.8-32,6.2-32h277.6c3.4,0,6.2,2.8,6.2,6.2v80.1c0,3.4-2.8,6.2-6.2,6.2H6.2
		c-3.4,0-6.2-2.8-6.2-6.2V-25.8L0-25.8z"/>
	<g id="LEDs" transform="translate(3.000000, 3.000000)">
		<g id="LED" transform="translate(5.000000, 0.000000)">
			<circle id="Fill" class="st1" cx="50.6" cy="-7.2" r="9.3"/>
			<path id="Outline" class="st0" d="M50.6-4.1c1.7,0,3.1-1.4,3.1-3.1s-1.4-3.1-3.1-3.1c-1.7,0-3.1,1.4-3.1,3.1S48.9-4.1,50.6-4.1
				L50.6-4.1z M50.6,2L50.6,2c-5.1,0-9.3-4.1-9.3-9.3s4.1-9.3,9.3-9.3s9.3,4.1,9.3,9.3S55.7,2,50.6,2L50.6,2z"/>
		</g>
		<g id="LED_1_">
			<circle id="Fill_1_" class="st1" cx="24.8" cy="-7.2" r="9.3"/>
			<path id="Outline_1_" class="st0" d="M24.8-4.1c1.7,0,3.1-1.4,3.1-3.1s-1.4-3.1-3.1-3.1s-3.1,1.4-3.1,3.1S23.1-4.1,24.8-4.1
				L24.8-4.1z M24.8,2L24.8,2c-5.1,0-9.3-4.1-9.3-9.3s4.1-9.3,9.3-9.3S34-12.3,34-7.2S29.9,2,24.8,2L24.8,2z"/>
		</g>
	</g>
	<path id="Dots" class="st2" d="M21.6,29.7c1.7,0,3.1-1.4,3.1-3.1s-1.4-3.1-3.1-3.1s-3.1,1.4-3.1,3.1S19.9,29.7,21.6,29.7z
		 M33.9,29.7c1.7,0,3.1-1.4,3.1-3.1s-1.4-3.1-3.1-3.1c-1.7,0-3.1,1.4-3.1,3.1S32.2,29.7,33.9,29.7z M46.3,29.7
		c1.7,0,3.1-1.4,3.1-3.1s-1.4-3.1-3.1-3.1s-3.1,1.4-3.1,3.1S44.6,29.7,46.3,29.7z M58.6,29.7c1.7,0,3.1-1.4,3.1-3.1
		s-1.4-3.1-3.1-3.1c-1.7,0-3.1,1.4-3.1,3.1S56.9,29.7,58.6,29.7z M71,29.7c1.7,0,3.1-1.4,3.1-3.1s-1.4-3.1-3.1-3.1
		c-1.7,0-3.1,1.4-3.1,3.1S69.3,29.7,71,29.7z M83.3,29.7c1.7,0,3.1-1.4,3.1-3.1s-1.4-3.1-3.1-3.1c-1.7,0-3.1,1.4-3.1,3.1
		S81.6,29.7,83.3,29.7z M95.6,29.7c1.7,0,3.1-1.4,3.1-3.1s-1.4-3.1-3.1-3.1s-3.1,1.4-3.1,3.1S93.9,29.7,95.6,29.7z M108,29.7
		c1.7,0,3.1-1.4,3.1-3.1s-1.4-3.1-3.1-3.1s-3.1,1.4-3.1,3.1S106.3,29.7,108,29.7z M120.3,29.7c1.7,0,3.1-1.4,3.1-3.1
		s-1.4-3.1-3.1-3.1c-1.7,0-3.1,1.4-3.1,3.1S118.6,29.7,120.3,29.7z M132.7,29.7c1.7,0,3.1-1.4,3.1-3.1s-1.4-3.1-3.1-3.1
		s-3.1,1.4-3.1,3.1S131,29.7,132.7,29.7z M145,29.7c1.7,0,3.1-1.4,3.1-3.1s-1.4-3.1-3.1-3.1s-3.1,1.4-3.1,3.1S143.3,29.7,145,29.7z
		 M157.3,29.7c1.7,0,3.1-1.4,3.1-3.1s-1.4-3.1-3.1-3.1s-3.1,1.4-3.1,3.1S155.6,29.7,157.3,29.7z M169.7,29.7c1.7,0,3.1-1.4,3.1-3.1
		s-1.4-3.1-3.1-3.1s-3.1,1.4-3.1,3.1S168,29.7,169.7,29.7z M182,29.7c1.7,0,3.1-1.4,3.1-3.1s-1.4-3.1-3.1-3.1s-3.1,1.4-3.1,3.1
		S180.3,29.7,182,29.7z M194.4,29.7c1.7,0,3.1-1.4,3.1-3.1s-1.4-3.1-3.1-3.1c-1.7,0-3.1,1.4-3.1,3.1S192.7,29.7,194.4,29.7z
		 M206.7,29.7c1.7,0,3.1-1.4,3.1-3.1s-1.4-3.1-3.1-3.1s-3.1,1.4-3.1,3.1S205,29.7,206.7,29.7z M219,29.7c1.7,0,3.1-1.4,3.1-3.1
		s-1.4-3.1-3.1-3.1s-3.1,1.4-3.1,3.1S217.3,29.7,219,29.7z M231.4,29.7c1.7,0,3.1-1.4,3.1-3.1s-1.4-3.1-3.1-3.1s-3.1,1.4-3.1,3.1
		S229.7,29.7,231.4,29.7z M243.7,29.7c1.7,0,3.1-1.4,3.1-3.1s-1.4-3.1-3.1-3.1s-3.1,1.4-3.1,3.1S242,29.7,243.7,29.7z M256.1,29.7
		c1.7,0,3.1-1.4,3.1-3.1s-1.4-3.1-3.1-3.1c-1.7,0-3.1,1.4-3.1,3.1S254.4,29.7,256.1,29.7z M268.4,29.7c1.7,0,3.1-1.4,3.1-3.1
		s-1.4-3.1-3.1-3.1s-3.1,1.4-3.1,3.1S266.7,29.7,268.4,29.7z M21.6,42c1.7,0,3.1-1.4,3.1-3.1c0-1.7-1.4-3.1-3.1-3.1
		s-3.1,1.4-3.1,3.1C18.5,40.7,19.9,42,21.6,42z M33.9,42c1.7,0,3.1-1.4,3.1-3.1c0-1.7-1.4-3.1-3.1-3.1c-1.7,0-3.1,1.4-3.1,3.1
		C30.9,40.7,32.2,42,33.9,42z M46.3,42c1.7,0,3.1-1.4,3.1-3.1c0-1.7-1.4-3.1-3.1-3.1s-3.1,1.4-3.1,3.1C43.2,40.7,44.6,42,46.3,42z
		 M58.6,42c1.7,0,3.1-1.4,3.1-3.1c0-1.7-1.4-3.1-3.1-3.1c-1.7,0-3.1,1.4-3.1,3.1C55.5,40.7,56.9,42,58.6,42z M71,42
		c1.7,0,3.1-1.4,3.1-3.1c0-1.7-1.4-3.1-3.1-3.1c-1.7,0-3.1,1.4-3.1,3.1C67.9,40.7,69.3,42,71,42z M83.3,42c1.7,0,3.1-1.4,3.1-3.1
		c0-1.7-1.4-3.1-3.1-3.1c-1.7,0-3.1,1.4-3.1,3.1C80.2,40.7,81.6,42,83.3,42z M95.6,42c1.7,0,3.1-1.4,3.1-3.1c0-1.7-1.4-3.1-3.1-3.1
		s-3.1,1.4-3.1,3.1C92.6,40.7,93.9,42,95.6,42z M108,42c1.7,0,3.1-1.4,3.1-3.1c0-1.7-1.4-3.1-3.1-3.1s-3.1,1.4-3.1,3.1
		C104.9,40.7,106.3,42,108,42z M120.3,42c1.7,0,3.1-1.4,3.1-3.1c0-1.7-1.4-3.1-3.1-3.1c-1.7,0-3.1,1.4-3.1,3.1
		C117.2,40.7,118.6,42,120.3,42z M132.7,42c1.7,0,3.1-1.4,3.1-3.1c0-1.7-1.4-3.1-3.1-3.1s-3.1,1.4-3.1,3.1
		C129.6,40.7,131,42,132.7,42z M145,42c1.7,0,3.1-1.4,3.1-3.1c0-1.7-1.4-3.1-3.1-3.1s-3.1,1.4-3.1,3.1C141.9,40.7,143.3,42,145,42z
		 M157.3,42c1.7,0,3.1-1.4,3.1-3.1c0-1.7-1.4-3.1-3.1-3.1s-3.1,1.4-3.1,3.1C154.3,40.7,155.6,42,157.3,42z M169.7,42
		c1.7,0,3.1-1.4,3.1-3.1c0-1.7-1.4-3.1-3.1-3.1s-3.1,1.4-3.1,3.1C166.6,40.7,168,42,169.7,42z M182,42c1.7,0,3.1-1.4,3.1-3.1
		c0-1.7-1.4-3.1-3.1-3.1s-3.1,1.4-3.1,3.1C178.9,40.7,180.3,42,182,42z M194.4,42c1.7,0,3.1-1.4,3.1-3.1c0-1.7-1.4-3.1-3.1-3.1
		c-1.7,0-3.1,1.4-3.1,3.1C191.3,40.7,192.7,42,194.4,42z M206.7,42c1.7,0,3.1-1.4,3.1-3.1c0-1.7-1.4-3.1-3.1-3.1s-3.1,1.4-3.1,3.1
		C203.6,40.7,205,42,206.7,42z M219,42c1.7,0,3.1-1.4,3.1-3.1c0-1.7-1.4-3.1-3.1-3.1S216,37.3,216,39C216,40.7,217.3,42,219,42z
		 M231.4,42c1.7,0,3.1-1.4,3.1-3.1c0-1.7-1.4-3.1-3.1-3.1s-3.1,1.4-3.1,3.1C228.3,40.7,229.7,42,231.4,42z M243.7,42
		c1.7,0,3.1-1.4,3.1-3.1c0-1.7-1.4-3.1-3.1-3.1s-3.1,1.4-3.1,3.1C240.6,40.7,242,42,243.7,42z M256.1,42c1.7,0,3.1-1.4,3.1-3.1
		c0-1.7-1.4-3.1-3.1-3.1c-1.7,0-3.1,1.4-3.1,3.1C253,40.7,254.4,42,256.1,42z M268.4,42c1.7,0,3.1-1.4,3.1-3.1
		c0-1.7-1.4-3.1-3.1-3.1s-3.1,1.4-3.1,3.1C265.3,40.7,266.7,42,268.4,42z"/>
</g>
</svg>
