<?xml version="1.0" encoding="utf-8"?>
<!-- Generator: Adobe Illustrator 19.2.0, SVG Export Plug-In . SVG Version: 6.00 Build 0)  -->
<svg version="1.1" id="Lager_1" xmlns="http://www.w3.org/2000/svg" xmlns:xlink="http://www.w3.org/1999/xlink" x="0px" y="0px"
	 viewBox="0 0 177.2 151.3" style="enable-background:new 0 0 177.2 151.3;" xml:space="preserve">
<style type="text/css">
	.st0{fill:#f149aa;}
</style>
<path class="st0" d="M88.6,39.7c-14.4,0-26.3,7.2-26.3,16.4s11.8,16.4,26.3,16.4s26.3-7.2,26.3-16.4S103.1,39.7,88.6,39.7z M88.6,66
	c-11.2,0-19.7-5.2-19.7-9.8s8.5-9.8,19.7-9.8s19.7,5.2,19.7,9.8S99.8,66,88.6,66z"/>
<path class="st0" d="M165.1,43c1.6-2,2.3-4.3,2.3-6.9c0-9.2-11.8-16.4-26.3-16.4c-7.5,0-14.1,2-18.7,4.9l-8.5-3.6c0.7-1.3,1-3,1-4.6
	C114.9,7.2,103,0,88.6,0S62.4,7.2,62.4,16.4c0,1.6,0.3,3,1,4.6l-6.6,3c-4.6-2.6-10.8-4.3-17.4-4.3c-14.4,0-26.3,7.2-26.3,16.4
	c0,2,0.7,3.9,1.6,5.9L0,48.6v65l88.6,37.7l88.6-38.1V48.6L165.1,43L165.1,43z M88.6,83.7L11.5,50.5l8.2-3.3
	c4.9,3.3,11.8,5.6,19.7,5.6c14.4,0,26.3-7.2,26.3-16.4c0-2.6-1-5.2-3-7.5l4.9-2c4.9,3.9,12.5,6.6,21,6.6s16.1-2.6,21-6.6l7.5,3.3
	c-1.3,2-2.3,4.3-2.3,6.6c0,9.2,11.8,16.4,26.3,16.4c7.2,0,13.8-1.6,18.4-4.6l6.2,2.6L88.6,83.7L88.6,83.7z M160.8,36.1
	c0,4.6-8.5,9.8-19.7,9.8c-11.2,0-19.7-5.2-19.7-9.8s8.5-9.8,19.7-9.8S160.8,31.5,160.8,36.1z M88.6,6.9c11.2,0,19.7,5.2,19.7,9.8
	s-8.5,9.8-19.7,9.8s-19.7-5.2-19.7-9.8S77.5,6.9,88.6,6.9z M39.4,26.3c11.2,0,19.7,5.2,19.7,9.8s-8.5,9.8-19.7,9.8
	s-19.7-5.2-19.7-9.8S28.2,26.3,39.4,26.3z M6.6,55.5l78.8,33.8v53.5L6.6,109C6.6,109,6.6,55.5,6.6,55.5z M91.9,142.8V89.3l78.8-33.8
	V109L91.9,142.8z"/>
</svg>
