<?xml version="1.0" encoding="utf-8"?>
<!-- Generator: Adobe Illustrator 19.2.0, SVG Export Plug-In . SVG Version: 6.00 Build 0)  -->
<svg version="1.1" id="Lager_1" xmlns="http://www.w3.org/2000/svg" xmlns:xlink="http://www.w3.org/1999/xlink" x="0px" y="0px"
	 viewBox="0 0 215.7 41.5" style="enable-background:new 0 0 215.7 41.5;" xml:space="preserve">
<style type="text/css">
	.st0{fill:#c2f859;fill-opacity:0.2;}
	.st1{fill:#c2f859;}
	.st2{fill:#c2f859;fill-opacity:0.4;}
</style>
<g id="Machine_3_">
	<g id="Background_3_">
		<path id="Fill_16_" class="st0" d="M4.6,0h206.5c2.5,0,4.6,1.2,4.6,2.8v36c0,1.5-2.1,2.8-4.6,2.8H4.6c-2.5,0-4.6-1.2-4.6-2.8v-36
			C0,1.2,2.1,0,4.6,0z"/>
		<path id="Outline_8_" class="st1" d="M4.6,2.8L4.6,2.8v36c0,0,0,0,0,0h206.4c0,0,0,0,0,0v-36c0,0,0,0,0,0L4.6,2.8
			C4.6,2.8,4.6,2.8,4.6,2.8L4.6,2.8z M0,2.8C0,1.2,2.1,0,4.6,0h206.4c2.5,0,4.6,1.2,4.6,2.8v36c0,1.5-2.1,2.8-4.6,2.8H4.6
			c-2.5,0-4.6-1.2-4.6-2.8V2.8L0,2.8z"/>
	</g>
	<g>
		<path id="Dotted-Line_1_" class="st2" d="M100.9,9.3h4.6v9.2h-4.6V9.3L100.9,9.3z M100.9,23.1h4.6v9.2h-4.6V23.1L100.9,23.1z"/>
		<path id="Dots_3_" class="st2" d="M16.1,18.5c1.3,0,2.3-1,2.3-2.3s-1-2.3-2.3-2.3c-1.3,0-2.3,1-2.3,2.3S14.8,18.5,16.1,18.5z
			 M25.2,18.5c1.3,0,2.3-1,2.3-2.3s-1-2.3-2.3-2.3s-2.3,1-2.3,2.3S24,18.5,25.2,18.5z M34.4,18.5c1.3,0,2.3-1,2.3-2.3
			s-1-2.3-2.3-2.3c-1.3,0-2.3,1-2.3,2.3S33.1,18.5,34.4,18.5z M43.6,18.5c1.3,0,2.3-1,2.3-2.3s-1-2.3-2.3-2.3c-1.3,0-2.3,1-2.3,2.3
			S42.3,18.5,43.6,18.5z M52.8,18.5c1.3,0,2.3-1,2.3-2.3s-1-2.3-2.3-2.3c-1.3,0-2.3,1-2.3,2.3S51.5,18.5,52.8,18.5z M61.9,18.5
			c1.3,0,2.3-1,2.3-2.3s-1-2.3-2.3-2.3c-1.3,0-2.3,1-2.3,2.3S60.7,18.5,61.9,18.5z M71.1,18.5c1.3,0,2.3-1,2.3-2.3s-1-2.3-2.3-2.3
			c-1.3,0-2.3,1-2.3,2.3S69.9,18.5,71.1,18.5z M80.3,18.5c1.3,0,2.3-1,2.3-2.3s-1-2.3-2.3-2.3c-1.3,0-2.3,1-2.3,2.3
			S79,18.5,80.3,18.5z M89.5,18.5c1.3,0,2.3-1,2.3-2.3s-1-2.3-2.3-2.3c-1.3,0-2.3,1-2.3,2.3S88.2,18.5,89.5,18.5z M117,18.5
			c1.3,0,2.3-1,2.3-2.3s-1-2.3-2.3-2.3s-2.3,1-2.3,2.3S115.7,18.5,117,18.5z M126.2,18.5c1.3,0,2.3-1,2.3-2.3s-1-2.3-2.3-2.3
			s-2.3,1-2.3,2.3S124.9,18.5,126.2,18.5z M135.4,18.5c1.3,0,2.3-1,2.3-2.3s-1-2.3-2.3-2.3s-2.3,1-2.3,2.3S134.1,18.5,135.4,18.5z
			 M144.5,18.5c1.3,0,2.3-1,2.3-2.3s-1-2.3-2.3-2.3s-2.3,1-2.3,2.3S143.3,18.5,144.5,18.5z M153.7,18.5c1.3,0,2.3-1,2.3-2.3
			s-1-2.3-2.3-2.3s-2.3,1-2.3,2.3S152.4,18.5,153.7,18.5z M162.9,18.5c1.3,0,2.3-1,2.3-2.3s-1-2.3-2.3-2.3s-2.3,1-2.3,2.3
			S161.6,18.5,162.9,18.5z M172.1,18.5c1.3,0,2.3-1,2.3-2.3s-1-2.3-2.3-2.3s-2.3,1-2.3,2.3S170.8,18.5,172.1,18.5z M181.2,18.5
			c1.3,0,2.3-1,2.3-2.3s-1-2.3-2.3-2.3s-2.3,1-2.3,2.3S180,18.5,181.2,18.5z M190.4,18.5c1.3,0,2.3-1,2.3-2.3s-1-2.3-2.3-2.3
			s-2.3,1-2.3,2.3S189.2,18.5,190.4,18.5z M199.6,18.5c1.3,0,2.3-1,2.3-2.3s-1-2.3-2.3-2.3s-2.3,1-2.3,2.3S198.3,18.5,199.6,18.5z
			 M16.1,27.7c1.3,0,2.3-1,2.3-2.3s-1-2.3-2.3-2.3c-1.3,0-2.3,1-2.3,2.3S14.8,27.7,16.1,27.7z M25.2,27.7c1.3,0,2.3-1,2.3-2.3
			s-1-2.3-2.3-2.3s-2.3,1-2.3,2.3S24,27.7,25.2,27.7z M34.4,27.7c1.3,0,2.3-1,2.3-2.3s-1-2.3-2.3-2.3c-1.3,0-2.3,1-2.3,2.3
			S33.1,27.7,34.4,27.7z M43.6,27.7c1.3,0,2.3-1,2.3-2.3s-1-2.3-2.3-2.3c-1.3,0-2.3,1-2.3,2.3S42.3,27.7,43.6,27.7z M52.8,27.7
			c1.3,0,2.3-1,2.3-2.3s-1-2.3-2.3-2.3c-1.3,0-2.3,1-2.3,2.3S51.5,27.7,52.8,27.7z M61.9,27.7c1.3,0,2.3-1,2.3-2.3s-1-2.3-2.3-2.3
			c-1.3,0-2.3,1-2.3,2.3S60.7,27.7,61.9,27.7z M71.1,27.7c1.3,0,2.3-1,2.3-2.3s-1-2.3-2.3-2.3c-1.3,0-2.3,1-2.3,2.3
			S69.9,27.7,71.1,27.7z M80.3,27.7c1.3,0,2.3-1,2.3-2.3s-1-2.3-2.3-2.3c-1.3,0-2.3,1-2.3,2.3S79,27.7,80.3,27.7z M89.5,27.7
			c1.3,0,2.3-1,2.3-2.3s-1-2.3-2.3-2.3c-1.3,0-2.3,1-2.3,2.3S88.2,27.7,89.5,27.7z M117,27.7c1.3,0,2.3-1,2.3-2.3s-1-2.3-2.3-2.3
			s-2.3,1-2.3,2.3S115.7,27.7,117,27.7z M126.2,27.7c1.3,0,2.3-1,2.3-2.3s-1-2.3-2.3-2.3s-2.3,1-2.3,2.3S124.9,27.7,126.2,27.7z
			 M135.4,27.7c1.3,0,2.3-1,2.3-2.3s-1-2.3-2.3-2.3s-2.3,1-2.3,2.3S134.1,27.7,135.4,27.7z M144.5,27.7c1.3,0,2.3-1,2.3-2.3
			s-1-2.3-2.3-2.3s-2.3,1-2.3,2.3S143.3,27.7,144.5,27.7z M153.7,27.7c1.3,0,2.3-1,2.3-2.3s-1-2.3-2.3-2.3s-2.3,1-2.3,2.3
			S152.4,27.7,153.7,27.7z M162.9,27.7c1.3,0,2.3-1,2.3-2.3s-1-2.3-2.3-2.3s-2.3,1-2.3,2.3S161.6,27.7,162.9,27.7z M172.1,27.7
			c1.3,0,2.3-1,2.3-2.3s-1-2.3-2.3-2.3s-2.3,1-2.3,2.3S170.8,27.7,172.1,27.7z M181.2,27.7c1.3,0,2.3-1,2.3-2.3s-1-2.3-2.3-2.3
			s-2.3,1-2.3,2.3S180,27.7,181.2,27.7z M190.4,27.7c1.3,0,2.3-1,2.3-2.3s-1-2.3-2.3-2.3s-2.3,1-2.3,2.3S189.2,27.7,190.4,27.7z
			 M199.6,27.7c1.3,0,2.3-1,2.3-2.3s-1-2.3-2.3-2.3s-2.3,1-2.3,2.3S198.3,27.7,199.6,27.7z"/>
	</g>
</g>
</svg>
