<?xml version="1.0" encoding="utf-8"?>
<svg version="1.1" id="Lager_1" xmlns="http://www.w3.org/2000/svg" xmlns:xlink="http://www.w3.org/1999/xlink" x="0px" y="0px"
	 viewBox="0 0 48 48" style="enable-background:new 0 0 48 48;" xml:space="preserve">
<style type="text/css">
	.st0{fill:#fff;fill-opacity:0;}
	.st1{fill:#fff;}
</style>
<g>
	<path class="st0" d="M14,16h30c2.2,0,4,1.8,4,4v24c0,2.2-1.8,4-4,4H14c-2.2,0-4-1.8-4-4V20C10,17.8,11.8,16,14,16z"/>
	<path class="st1" d="M10,20c0-2.2,1.8-4,4-4c0,0,0,0,0,0h30c2.2,0,4,1.8,4,4c0,0,0,0,0,0v24c0,2.2-1.8,4-4,4c0,0,0,0,0,0H14
		c-2.2,0-4-1.8-4-4c0,0,0,0,0,0V20z M11,20c0-1.7,1.3-3,3-3h30c1.7,0,3,1.3,3,3v24c0,1.7-1.3,3-3,3H14c-1.7,0-3-1.3-3-3V20z M10,31
		H8v1h2V31z M37,13.1h1v2h-1V13.1z M37,9.1h1v2h-1V9.1z M37,5.1h1v2h-1V5.1z M36.9,3.4c-0.1-0.5-0.3-0.9-0.7-1.3L37,1.4
		c0.4,0.5,0.7,1.1,0.9,1.8L36.9,3.4z M35,1.2C34.7,1.1,34.4,1,34,1h-0.6V0h0.6l0,0h0l0,0h0l0,0h0l0,0h0l0,0h0l0,0h0l0,0h0l0,0h0l0,0
		h0l0,0h0l0,0h0l0,0h0l0,0h0l0,0h0l0,0h0l0,0h0l0,0h0l0,0h0l0,0h0l0,0h0l0,0h0l0,0h0l0,0h0l0,0h0l0,0h0l0,0h0l0,0h0l0,0h0l0,0h0l0,0
		h0l0,0h0l0,0h0l0,0h0c0,0,0,0,0,0h0l0,0h0l0,0h0l0,0h0l0,0h0l0,0h0l0,0h0l0,0h0l0,0h0c0,0,0,0,0,0h0l0,0h0l0,0h0c0,0,0,0,0,0h0l0,0
		h0c0,0,0,0,0,0h0l0,0l0,0l0,0h0l0,0h0l0,0h0c0,0,0,0,0,0h0l0,0c0,0,0,0,0,0h0l0,0h0l0,0l0,0h0l0,0l0,0l0,0h0l0,0h0l0,0l0,0l0,0h0
		c0,0,0,0,0,0l0,0h0l0,0l0,0h0l0,0l0,0h0l0,0l0,0l0,0c0.2,0,0.4,0.1,0.5,0.2L35,1.2L35,1.2z M29.4,0h2v1h-2V0z M25.4,0h2v1h-2V0z
		 M21.4,0h2v1h-2V0z M17.4,0h2v1h-2V0z M13.4,0h2v1h-2V0z M9.4,0h2v1h-2V0z M5.4,0h2v1h-2V0z M2.2,1.6L1.6,0.8
		c0.3-0.2,0.6-0.4,1-0.5l0,0l0,0l0,0h0l0,0h0l0,0c0,0,0,0,0,0l0,0l0,0l0,0l0,0l0,0v0l0,0h0l0,0h0l0,0l0,0h0l0,0l0,0h0l0,0h0l0,0v0
		l0,0h0l0,0h0l0,0l0,0l0,0h0l0,0h0l0,0h0l0,0l0,0c0,0,0,0,0,0h0l0,0h0l0,0h0l0,0h0l0,0l0,0h0c0,0,0,0,0,0v0l0,0h0l0,0h0l0,0h0l0,0
		l0,0l0,0l0,0h0l0,0l0,0l0,0l0,0h0l0,0l0,0l0,0l0,0h0l0,0h0c0,0,0,0,0,0v0l0,0h0l0,0h0l0,0l0,0h0l0,0h0l0,0h0l0,0l0,0h0l0,0h0v0l0,0
		h0l0,0h0l0,0h0l0,0h0l0,0l0,0h0l0,0h0c0,0,0,0,0,0l0,0h0l0,0h0l0,0l0,0h0l0,0h0l0,0h0l0,0l0,0h0l0,0h0l0,0h0l0,0h0l0,0h0l0,0h0l0,0
		h0l0,0h0l0,0h0l0,0h0l0,0h0l0,0h0l0,0h0l0,0h0l0,0h0l0,0h0l0,0h0l0,0h0l0,0h0l0,0h0l0,0h0l0,0h0l0,0h0l0,0h0l0,0h0l0,0h0l0,0h0l0,0
		h0l0,0h0l0,0h0l0,0h0l0,0h0l0,0h0l0,0h0l0,0h0v0h0l0,0h0l0,0h0l0,0h0l0,0l0,0h0l0,0h0l0,0h0l0,0l0,0h0l0,0h0l0,0l0,0h0l0,0h0l0,0h0
		l0,0h0l0,0h0l0,0v0h0l0,0h0l0,0h0l0,0h0l0,0h0l0,0l0,0h0l0,0h0l0,0h0l0,0h0l0,0h0l0,0l0,0h0l0,0h0l0,0h0l0,0h0l0,0l0,0h0l0,0h0l0,0
		l0,0h0l0,0h0l0,0h0l0,0l0,0h0l0,0l0,0l0,0h0l0,0l0,0l0,0l0,0l0,0l0.1,1C3.1,1.1,2.6,1.3,2.2,1.6z M1,4.3H0V3.9l0,0v0l0,0v0l0,0v0
		l0,0v0l0,0v0l0,0v0l0,0v0l0,0v0l0,0v0l0,0v0l0,0v0c0-0.5,0.2-0.9,0.3-1.3l0.9,0.4C1.1,3.1,1,3.6,1,4C1,4,1,4.3,1,4.3z M0,6.3h1v2H0
		C0,8.3,0,6.3,0,6.3z M0,10.3h1v2H0V10.3z M0,14.3h1v2H0V14.3z M0,18.3h1v2H0V18.3z M0,22.3h1v2H0V22.3z M0,28.3L0,28.3L0,28.3
		L0,28.3L0,28.3L0,28.3L0,28.3l0-0.1l0,0v-0.1l0,0v-1.8h1V28c0,0.1,0,0.1,0,0.2C1,28.2,0,28.3,0,28.3z M2.1,31.5
		c-0.2-0.1-0.4-0.3-0.6-0.4l0,0v0l0,0v0c0,0,0,0,0,0c0,0,0,0,0,0v0l0,0l0,0v0l0,0v0l0,0l0,0l0,0l0,0l0,0c0,0,0,0,0,0l0,0v0l0,0v0
		l0,0v0l0,0v0l0,0v0l0,0l0,0v0l0,0l0,0v0l0,0v0l0,0v0l0,0v0l0,0l0,0v0l0,0v0l0,0v0l0,0l0,0v0l0,0v0c0,0,0,0,0,0c0,0,0,0,0,0v0l0,0v0
		l0,0v0l0,0v0l0,0l0,0v0l0,0l0,0l0,0v0l0,0v0c0,0,0,0,0,0l0,0l0,0v0l0,0l0,0v0l0,0l0,0v0l0,0c0,0,0,0,0,0c0,0,0,0,0,0v0l0,0l0,0l0,0
		v0l0,0l0,0v0l0,0l0,0l0,0l0,0c0,0,0,0,0,0v0c-0.2-0.2-0.4-0.5-0.6-0.7l0.8-0.5c0.3,0.4,0.6,0.8,1.1,1L2.1,31.5L2.1,31.5z M4,31h2v1
		H4V31z"/>
</g>
</svg>
