<svg viewBox="0 0 48 48">
  <g fill-rule="evenodd">
    <rect fill-opacity=".2" x="10" y="16" width="38" height="32" rx="4"></rect>
    <path d="M10 20.004A3.995 3.995 0 0 1 13.995 16h30.01A3.997 3.997 0 0 1 48 20.004v23.992A3.995 3.995 0 0 1 44.005 48h-30.01A3.997 3.997 0 0 1 10 43.996V20.004zM11 20c0-1.657 1.346-3 3.007-3h29.986A3.006 3.006 0 0 1 47 20v24c0 1.657-1.346 3-3.007 3H14.007A3.006 3.006 0 0 1 11 44V20zm-1 11H8.005v1H10v-1zm27-17.861h1v2h-1v-2zm0-4h1v2h-1v-2zm0-4h1v2h-1v-2zm-.069-1.781a3 3 0 0 0-.665-1.327l.755-.655c.431.497.742 1.102.887 1.769l-.977.213zm-1.884-2.172A2.969 2.969 0 0 0 34.005 1h-.58V0h.643l.005.001h.041l.005.001h.028l.001.001h.023l.005.001h.018l.005.001h.017l.005.001h.012l.005.001h.012l.005.001h.012l.005.001h.011l.001.001h.011l.005.001h.006l.005.001h.013l.004.001h.007l.004.001h.007l.004.001h.007l.005.001h.007l.004.001h.006l.005.001h.007l.005.001h.006l.004.001h.006l.001.001h.005l.005.001h.007l.004.001h.007l.004.001h.001l.005.001h.007l.004.001h.006l.001.001h.005l.005.001h.005l.001.001h.006l.004.001h.006l.001.001h.006l.004.001h.001l.005.001h.006a.009.009 0 0 0 .005.001h.001l.004.001h.006l.005.001h.001l.005.001h.001l.004.001h.006l.001.001h.005l.005.001h.001l.004.001h.001l.005.001h.006a.009.009 0 0 0 .005.001h.001l.004.001h.001l.005.001h.001a.01.01 0 0 1 .005.001h.005l.001.001h.005a.009.009 0 0 0 .005.001h.001l.005.001.005.001.005.001h.001l.005.001h.001l.004.001h.006a.01.01 0 0 0 .005.001h.001l.005.001a.01.01 0 0 0 .005.001h.001l.01.002h.001l.005.001.005.001h.001l.005.001.005.001.005.001h.001l.005.001h.001l.005.001.005.001.005.001h.001a.01.01 0 0 1 .005.001l.005.001h.001l.01.002.005.001h.001l.005.001.016.003h.001l.005.001.016.004.048.01c.185.04.365.092.54.157l-.349.938zM29.424 0h2v1h-2V0zm-4 0h2v1h-2V0zm-4 0h2v1h-2V0zm-4 0h2v1h-2V0zm-4 0h2v1h-2V0zm-4 0h2v1h-2V0zm-4 0h2v1h-2V0zM2.2 1.598L1.6.799a3.956 3.956 0 0 1 1-.548l.004-.002.011-.004.014-.005h.001l.01-.004h.001l.003-.001a.049.049 0 0 1 .011-.004l.004-.002.007-.002.004-.002.007-.002.004-.001V.221L2.683.22h.001l.003-.001h.001l.003-.001.001-.001h.002l.001-.001.003-.001H2.7l.003-.001h.001l.003-.001V.212L2.71.211h.001l.007-.002h.001L2.72.208l.001-.001.003-.001h.001l.003-.001h.001l.003-.001h.001l.002-.001.001-.001A.019.019 0 0 0 2.743.2h.001l.002-.001h.001L2.75.198h.001l.003-.002h.001l.003-.001.003-.001h.001A.019.019 0 0 1 2.77.192V.191L2.773.19h.001l.002-.001h.001l.007-.002h.001l.003-.001.003-.001.001-.001.003-.001h.001L2.8.182l.003-.001.007-.002.001-.001h.003l.001-.001.003-.001.004-.001.003-.001h.001L2.83.173h.001a.014.014 0 0 1 .007-.002V.17L2.84.169h.001l.003-.001h.001l.003-.001.003-.001h.002l.002-.001h.001L2.86.164h.001l.003-.001.001-.001h.002l.002-.001h.002V.16l.003-.001h.001l.003-.001h.001l.002-.001h.002l.002-.001h.001L2.89.155l.003-.001h.001l.003-.001h.001a.014.014 0 0 1 .006-.002L2.906.15h.002L2.91.149h.002l.002-.001.003-.001h.001L2.92.146h.002l.002-.001h.003L2.93.144l.002-.001h.002l.001-.001h.002l.002-.001h.001L2.943.14h.001l.002-.001h.001L2.95.138h.001l.002-.001h.001l.004-.001h.001l.002-.001h.002l.002-.001h.001l.002-.001h.003l.002-.001h.001l.002-.001h.002L2.98.13h.001l.004-.001h.001l.002-.001h.001l.003-.001h.001L3 .125h.001l.002-.001h.002l.002-.001h.001l.003-.001h.001l.003-.001h.001L3.018.12h.002l.002-.001h.002l.003-.001h.001L3.03.117h.002l.001-.001h.002l.003-.001h.002l.002-.001h.003l.002-.001h.001l.004-.001h.001l.002-.001h.002L3.06.11h.001l.002-.001h.002l.003-.001h.002V.107h.004l.002-.001h.002l.003-.001h.001l.002-.001h.003L3.09.103l.003-.001h.004l.001-.001H3.1L3.101.1h.004l.001-.001.004-.001h.003l.001-.001h.004l.003-.001.002-.001h.003l.002-.001h.002l.002-.001h.002l.003-.001h.003l.002-.001h.003L3.15.09V.089h.004l.002-.001h.003L3.16.087h.004l.001-.001h.003L3.17.085h.003l.005-.001.002-.001h.004l.001-.001h.004l.004-.001h.001L3.195.08h.001l.002-.001H3.2l.007-.001.001-.001h.004l.002-.001h.001L3.22.075h.003l.001-.001h.003l.011-.002.001-.001h.003L3.25.069h.004l.003-.001.005-.001h.001l.002-.001h.005l.008-.002h.003l.001-.001.011-.002h.004L3.31.059l.003-.001.012-.002h.001l.012-.002.012-.002.003-.001.028-.004.046-.007.141.99a2.995 2.995 0 0 0-1.368.568zM1 4.291H0v-.359l.001-.002v-.041l.001-.002v-.03l.001-.001v-.023l.001-.003v-.014l.001-.011v-.014l.001-.002v-.017l.002-.019V3.74l.001-.003v-.006l.002-.026v-.009l.001-.001v-.012l.004-.038v-.003c.041-.461.16-.898.343-1.3l.91.414A2.983 2.983 0 0 0 1 4.004v.287zm-1 2h1v2H0v-2zm0 4h1v2H0v-2zm0 4h1v2H0v-2zm0 4h1v2H0v-2zm0 4h1v2H0v-2zm.01 5.999v-.027l-.002-.004v-.028l-.002-.004v-.034l-.002-.002v-.046l-.002-.003v-.072L0 28.069v-1.778h1v1.705c0 .075.003.149.008.222l-.998.072zm2.076 3.226a3.974 3.974 0 0 1-.626-.423l-.007-.005v-.001l-.002-.001v-.001a.057.057 0 0 0-.009-.007.05.05 0 0 0-.009-.007v-.001l-.003-.002-.006-.005v-.001l-.003-.001v-.001l-.007-.005-.002-.002-.003-.002-.006-.006-.002-.002a.008.008 0 0 1-.005-.004l-.002-.001v-.001l-.003-.001v-.001l-.006-.005v-.001l-.002-.001v-.001l-.003-.001v-.002l-.003-.001-.002-.002v-.001l-.002-.001-.002-.001v-.001l-.006-.005v-.001l-.003-.001v-.001l-.002-.001v-.001l-.004-.003-.003-.002v-.001L1.35 31v-.001l-.004-.002v-.001l-.002-.002-.002-.001v-.001l-.003-.001v-.001a.002.002 0 0 0-.003-.002v-.001l-.003-.002v-.001l-.002-.001v-.001l-.004-.002v-.001l-.002-.001-.002-.001v-.002l-.002-.001-.002-.002-.003-.002v-.001l-.003-.002v-.001c-.002 0-.002-.001-.003-.002l-.003-.003-.003-.002v-.001l-.003-.002-.003-.002v-.001l-.002-.002-.003-.002v-.001l-.006-.005a.002.002 0 0 0-.003-.002v-.001l-.003-.002-.003-.003-.002-.002v-.001l-.003-.002-.006-.005v-.001l-.003-.002-.006-.006-.003-.002-.008-.008a.25.25 0 0 0-.017-.016v-.001a3.959 3.959 0 0 1-.594-.721l.84-.542a3.01 3.01 0 0 0 1.088 1.012l-.479.878zM4.006 31h2v1h-2v-1z"></path>
  </g>
</svg>
